<?xml version="1.0" standalone="no"?>
<!DOCTYPE svg PUBLIC "-//W3C//DTD SVG 20010904//EN"
 "http://www.w3.org/TR/2001/REC-SVG-20010904/DTD/svg10.dtd">
<svg version="1.0" xmlns="http://www.w3.org/2000/svg"
 width="636.000000pt" height="627.000000pt" viewBox="0 0 636.000000 627.000000"
 preserveAspectRatio="xMidYMid meet">

<g transform="translate(0.000000,627.000000) scale(0.100000,-0.100000)"
fill="#000000" stroke="none">
<path d="M5 3135 l0 -3140 2 2899 3 2898 28 -7 c69 -17 227 -82 330 -136 350
-182 625 -431 951 -861 29 -39 53 -60 75 -66 17 -5 121 -30 231 -56 478 -113
708 -192 842 -292 82 -61 71 -69 -40 -29 -98 36 -281 80 -412 100 -111 18
-446 27 -460 13 -4 -4 36 -78 88 -165 80 -134 178 -307 285 -503 13 -25 37
-67 52 -95 15 -27 44 -81 65 -120 204 -377 365 -654 408 -702 25 -28 219 -92
402 -131 77 -17 284 -54 460 -81 340 -54 540 -99 670 -150 84 -32 214 -102
271 -146 36 -28 46 -52 17 -40 -10 4 -56 13 -103 22 -101 18 -302 15 -770 -11
-448 -25 -471 -27 -465 -36 3 -4 42 -35 87 -67 523 -373 1358 -721 2246 -934
92 -22 176 -43 186 -46 15 -4 18 -2 13 12 -6 15 -218 324 -327 475 -25 36 -91
127 -146 203 -54 76 -112 157 -129 180 -26 38 -160 218 -325 437 -61 81 -125
163 -289 370 -694 875 -1401 1586 -2058 2068 -717 526 -1448 812 -2074 812
l-109 0 -3 233 c-1 127 -2 -1181 -2 -2908z"/>
<path d="M6310 3413 l0 -2857 -33 55 c-55 90 -233 362 -351 539 -370 548 -700
996 -1136 1546 -141 177 -336 411 -511 611 -276 315 -321 364 -705 759 -184
190 -529 505 -769 705 -223 185 -530 417 -539 408 -3 -2 57 -58 132 -124 750
-661 1404 -1325 1988 -2015 243 -287 624 -776 789 -1010 21 -30 66 -93 99
-140 269 -384 518 -777 762 -1205 l132 -230 71 -40 71 -40 0 -187 0 -188 25 0
25 0 0 3135 0 3135 -25 0 -25 0 0 -2857z"/>
</g>
</svg>
